# xmcd
#
# Track frame offsets: 
#        150
#        20727
#        35565
#        49004
#        65927
#        79862
#        95699
#        110419
#        130112
#        145876
#        158207
#        173609
#
# Disc length: 2575 seconds
#
# Revision: 2
# Processed by: cddbd v1.5.2PL0 Copyright (c) Steve Scherf et al.
# Submitted via: ExactAudioCopy v1.0b3
#
DISCID=a60a0d0c
DTITLE=Joan Sebastian y Pepe Aguilar - Los grandes
DYEAR=2002
DGENRE=Latin
TTITLE0=Joan Sebastian - Secreto De Amor
TTITLE1=Pepe Aguilar - Llamarada
TTITLE2=Joan Sebastian - Amorcito Mio
TTITLE3=Pepe Aguilar - Me Estoy Acostumbrando A Ti
TTITLE4=Joan Sebastian - Hasta Que Amanezca - Esa Noche
TTITLE5=Pepe Aguilar - Perdoname
TTITLE6=Joan Sebastian - El Primer Tonto
TTITLE7=Pepe Aguilar - Por Mujeres Como Tu
TTITLE8=Joan Sebastian - Manantial De Llanto
TTITLE9=Pepe Aguilar - Por Una Mujer Bonita
TTITLE10=Joan Sebastian - Dos Opciones
TTITLE11=Pepe Aguilar - Me Vas A Extrañar
EXTD=
EXTT0=
EXTT1=
EXTT2=
EXTT3=
EXTT4=
EXTT5=
EXTT6=
EXTT7=
EXTT8=
EXTT9=
EXTT10=
EXTT11=
PLAYORDER=
